<svg id="Capa_1" data-name="Capa 1" xmlns="http://www.w3.org/2000/svg" viewBox="0 0 500 500"><defs><style>.cls-1{fill:#fff;}</style></defs><path class="cls-1" d="M142.4,151.68s4.53-3.66,7-6.22c0,0,14.92,12.81,16.39,39.87,0,0-23.78,6.22-23.41,25.29.34,17.92,10.24,32.49,2.93,50.05s-30,58.52,13.89,72.41,76.08-15.36,81.2-36.57,4.38-41-26.34-62.17c0,0-10.24-6.59-16.82-22.68s-11-22.67-24.87-27.06c0,0,15.36-.73,25.6,17.55s14.63,23.41,24.87,28.53,50.47,27.8,28.53,78.27-80.46,45.35-80.46,45.35-49.76-5.47-53.31-48.08a56.41,56.41,0,0,1,7.52-32.72c3.12-5.42,7-11.71,10-15,5.85-6.59,3.65-24.14,2.92-30s-4.39-38,24.14-44.62A74.31,74.31,0,0,0,142.4,151.68Z"/><path class="cls-1" d="M275.89,199.59s13.8-34.25,28.53-40.23c13.35-5.41,35.11,6.59,35.84,8,0,0-11.95,36.56-62.17,36.57,0,0,27.06,5.85,46.08-8.78S352,164.48,352,164.48s-24.13-16.09-41.69-13.16S279.55,176.92,275.89,199.59Z"/><path class="cls-1" d="M331.44,204.24c-18.29-2.19-56.65,10.35-56.65,10.35-5.85-34.38-44.61-51.94-44.61-51.94,0,1.47-5.12,17.56-5.12,17.56,32.18,13.17,42,38.4,42,38.4l-1.77.94a35.91,35.91,0,0,1-6.32,3.52h0l17.61-5.33c.75-.27,1.5-.52,2.27-.75,1.28-.39,2.73-.81,4.3-1.26h0c13.31-3.76,32.64-7.64,46-4.18,19.75,5.12,41.55,29.55,34.11,61.55-6.95,29.91-34.4,78.32-74.17,62.28a29.09,29.09,0,0,0-13.1-2.1c-12.61,1-39.84-.42-56.83-27.26-22.67-35.84-11-64.37-11-64.37s4.05-10.19,17.47-15.51h0a48.42,48.42,0,0,1,17.93-3.88c8.16,0,15.37.81,15.37.81-3.85-.81-4.94-.9-6.22-1.23-.75-.2-2.2-.37-3-.52-20.12-3.44-34.48,6.34-42.58,14.43a40.59,40.59,0,0,0-11.26,21.79c-6.21,35.68,21.13,71,40.82,82.86a64.76,64.76,0,0,0,41.9,8.4,5,5,0,0,1,3.44.71c9.35,6.12,27.38,4.93,27.38,4.93,39.08-5.7,60.4-41.1,67.72-85S349.73,206.43,331.44,204.24Z"/><path class="cls-1" d="M328.37,237.58V261a8.9,8.9,0,0,0,1.13,5c1.34,2,4,3,7.87,3q7.51,0,10.3-4.2a11.19,11.19,0,0,0,1.44-6V237.58h14.95v38.86H349.73V271c-.14.12-.48.48-1,1.07a8.78,8.78,0,0,1-2,1.57,23.25,23.25,0,0,1-6.68,2.92,32.38,32.38,0,0,1-7.56.79q-12.48,0-16.82-6.21-2.42-3.42-2.42-10.09V237.58Z"/><path class="cls-1" d="M41.77,238.36a22.86,22.86,0,0,1,9.74,5.75,16.18,16.18,0,0,1,4.49,8,34.27,34.27,0,0,1,.49,7.71H15.42a8.91,8.91,0,0,0,5.9,8.2,20.3,20.3,0,0,0,8.13,1.46,16.5,16.5,0,0,0,8.18-1.78,10,10,0,0,0,3-2.67h15q-.6,3.45-5.47,7-7.57,5.67-21.21,5.67A40.15,40.15,0,0,1,9.18,273Q.57,268.2.57,257.42q0-10.1,7.77-15.49t20.16-5.39A45.11,45.11,0,0,1,41.77,238.36Zm-22.06,8.78a9.59,9.59,0,0,0-3.93,6h25.4A7.64,7.64,0,0,0,37.25,247a16.81,16.81,0,0,0-8.74-2.1C24.73,244.92,21.79,245.66,19.71,247.14Z"/><path class="cls-1" d="M79.06,237.58V261a9,9,0,0,0,1.13,5c1.34,2,4,3,7.88,3q7.52,0,10.3-4.2a11.19,11.19,0,0,0,1.44-6V237.58h15v38.86H100.43V271c-.14.12-.48.48-1,1.07a9,9,0,0,1-2,1.57,23.49,23.49,0,0,1-6.68,2.92,32.38,32.38,0,0,1-7.56.79q-12.49,0-16.82-6.21Q64,267.67,64,261V237.58Z"/><path class="cls-1" d="M160.84,236.67l1.27.05v10.41c-.94-.07-1.76-.12-2.49-.14s-1.31,0-1.76,0q-8.9,0-12,4c-1.14,1.49-1.7,3.8-1.7,6.91v18.58H129.36V237.58h14.07v6.77a25.15,25.15,0,0,1,5.95-5.31q4.14-2.39,10.76-2.39Z"/><path class="cls-1" d="M218.19,271.69q-7.14,6.07-21.67,6.07t-21.68-6.07q-7.14-6.07-7.14-14.63,0-8.4,7.14-14.57t21.68-6.16q14.53,0,21.67,6.16t7.14,14.57Q225.33,265.61,218.19,271.69Zm-11.79-5.62q3.47-3.17,3.47-9t-3.47-9q-3.47-3.15-9.93-3.15c-4.32,0-7.63,1.05-10,3.15s-3.49,5.1-3.49,9,1.16,6.9,3.49,9,5.64,3.17,10,3.17S204.09,268.18,206.4,266.07Z"/><path class="cls-1" d="M259.64,223.4l3.11.16v8.28c-.83-.07-2.22-.13-4.17-.16s-3.29.26-4,.89a2.72,2.72,0,0,0-1.11,2.08v3.28h9.67v7.17h-9.67v31.34H238.79V245.1h-8.27v-7.17h8.07v-2.49c0-4.16,1-7,3-8.6q3.21-3.48,15.47-3.49C258,223.35,258.88,223.37,259.64,223.4Z"/><path class="cls-1" d="M303.34,236.67l1.27.05v10.41c-.93-.07-1.76-.12-2.48-.14s-1.31,0-1.76,0q-8.89,0-11.95,4c-1.14,1.49-1.71,3.8-1.71,6.91v18.58H271.86V237.58h14.07v6.77a25.15,25.15,0,0,1,5.95-5.31q4.14-2.39,10.76-2.39Z"/><path class="cls-1" d="M373,245.17v-7.24h7.87V227.09h14.58v10.84h9.16v7.24h-9.16v20.54c0,1.59.3,2.58.88,3s2.38.58,5.38.58h1.43c.5,0,1,0,1.47-.06v7.6l-7,.18q-10.45.24-14.28-2.5a6.11,6.11,0,0,1-2.48-5.38V245.17Z"/><path class="cls-1" d="M403.74,245.17v-7.24h12.85V227.09h14.59v10.84h9.16v7.24h-9.16v20.54c0,1.59.29,2.58.88,3s2.38.58,5.38.58h1.42c.5,0,1,0,1.48-.06v7.6l-7,.18q-10.44.24-14.27-2.5a6.12,6.12,0,0,1-2.49-5.38V245.17Z"/><path class="cls-1" d="M472.56,252.8a32.31,32.31,0,0,0,5.89-.89q3.18-.93,3.18-2.89a3.32,3.32,0,0,0-2.44-3.3,21.67,21.67,0,0,0-7.15-.91q-5.31,0-7.5,1.79a6.4,6.4,0,0,0-2.1,3.56H448.21a12.3,12.3,0,0,1,4.16-8.38q5.86-5.13,20.16-5.13a49.73,49.73,0,0,1,16.52,2.53q7.23,2.53,7.22,9.56v17.82c0,1.24,0,2.74.11,4.5a4.26,4.26,0,0,0,.88,2.71,5.43,5.43,0,0,0,2.17,1.17v1.5h-16a8.6,8.6,0,0,1-.93-2.21,18.63,18.63,0,0,1-.41-2.35,31.47,31.47,0,0,1-7.08,3.88,29.27,29.27,0,0,1-10.82,1.89q-7.71,0-12.73-3a9.45,9.45,0,0,1-5-8.54q0-7.17,8.08-10.37,4.42-1.75,13-2.5Zm9,4.74a19.33,19.33,0,0,1-2.86,1,32.2,32.2,0,0,1-4,.7l-3.35.43a29.53,29.53,0,0,0-6.78,1.39q-3.48,1.38-3.48,4.31a3.94,3.94,0,0,0,2.12,3.76,10.63,10.63,0,0,0,5.18,1.16,20.58,20.58,0,0,0,8.9-1.92c2.72-1.29,4.12-3.63,4.23-7Z"/></svg>