<svg id="Capa_1" data-name="Capa 1" xmlns="http://www.w3.org/2000/svg" viewBox="0 0 500 500"><defs><style>.cls-1{fill:#fff;}</style></defs><path class="cls-1" d="M266.44,1.94a.55.55,0,0,0-.84.62c1.08,3.48,3.07,12.22-1.25,19.3-5.47,9-21.13,45,11.94,49.92a2.05,2.05,0,0,0,2-.94c2.66-4.24,11.13-20.37,3.42-44.09,0,0,12.52,17.39,2.09,41.73l-.33,1.3a.79.79,0,0,0,1.08.91c5.26-2.31,22.56-12,12.46-37C297.06,33.71,289.7,17.65,266.44,1.94Z"/><path class="cls-1" d="M373.83,97.82a.55.55,0,0,1,.44.94c-2.59,2.52-8.46,9.19-8,17.41.52,10.39-2.88,49.21-34,37.86a2.06,2.06,0,0,1-1.34-1.79c-.31-5-.05-23,17.89-40.05,0,0-19.14,9.23-21.57,35.38l-.33,1.28a.78.78,0,0,1-1.37.29c-3.49-4.5-14-21.16,6.64-38.12C332.11,111,346.13,100.5,373.83,97.82Z"/><path class="cls-1" d="M388.72,180.62a.48.48,0,0,1-.05.9c-3,.87-10.16,3.56-13.18,10-3.82,8.12-22.16,36.29-41.26,15a1.76,1.76,0,0,1-.29-1.91c1.77-3.9,9.29-17.54,29.85-23.22,0,0-18.31-.74-30.76,18.18l-.78.84a.67.67,0,0,1-1.15-.34c-.84-4.84-2.05-21.77,20.52-26.32C351.62,173.74,366.55,171.43,388.72,180.62Z"/><path class="cls-1" d="M169.18,247.44a.43.43,0,0,1-.05-.81c2.61-1.13,8.8-4.37,10.82-10.53,2.54-7.78,16-35.34,35.68-18.21a1.61,1.61,0,0,1,.48,1.69c-1.17,3.73-6.45,16.93-24.43,24.38,0,0,16.66-1.39,25.82-19.92l.6-.84a.61.61,0,0,1,1.09.17c1.3,4.29,4.3,19.49-15.63,26.14C203.56,249.51,190.3,253.28,169.18,247.44Z"/><path class="cls-1" d="M218.38,71.27a.41.41,0,0,0-.28.72c2,1.72,6.64,6.33,6.73,12.38.11,7.64,4.47,35.94,26.76,26.13a1.5,1.5,0,0,0,.9-1.38c0-3.65-1.06-16.88-15-28.5,0,0,14.48,5.85,17.51,24.9l.3.93a.57.57,0,0,0,1,.14c2.35-3.46,9.23-16.18-6.69-27.63C249.6,79,238.82,71.92,218.38,71.27Z"/><path class="cls-1" d="M111.23,147.54a.49.49,0,0,0,.18.91c3.18.45,10.88,2.16,14.89,8.27,5.07,7.73,27.87,33.8,44.26,9.32a1.78,1.78,0,0,0,0-2c-2.38-3.73-12-16.55-33.82-19.36,0,0,18.56-3.41,34,14.08l.91.74a.69.69,0,0,0,1.14-.51c.14-5.06-1.08-22.5-24.75-23.87C148.08,135.14,132.51,135,111.23,147.54Z"/><path class="cls-1" d="M139.61,81a.49.49,0,0,0-.38.84c2.33,2.21,7.63,8.06,7.36,15.37-.34,9.24,3.18,43.68,30.71,33.2a1.78,1.78,0,0,0,1.17-1.6c.22-4.41-.24-20.46-16.39-35.35,0,0,17.12,8,19.6,31.15l.31,1.14a.69.69,0,0,0,1.22.24c3-4,12.15-19-6.37-33.79C176.84,92.2,164.25,83,139.61,81Z"/><path class="cls-1" d="M153.42,217.85a.37.37,0,0,0,.68.14c1.24-2.06,4.67-6.88,10.06-7.86,6.82-1.24,31.47-9.35,19.37-27.82a1.36,1.36,0,0,0-1.36-.59c-3.27.55-14.94,3.46-23.24,17.68,0,0,3.07-13.81,19.65-19.36l.78-.41a.52.52,0,0,0,0-.93c-3.45-1.58-15.84-5.84-23.7,10.1C155.64,188.8,151,199.48,153.42,217.85Z"/><path class="cls-1" d="M283.05,140.1a.44.44,0,0,0-.62.54c1,2.67,3.09,9.42.09,15.22-3.8,7.34-14.09,36.52,12.16,38.55a1.61,1.61,0,0,0,1.55-.85c1.86-3.48,7.61-16.62.24-34.82,0,0,10.8,13,4,32.66l-.19,1a.62.62,0,0,0,.9.66c4-2.1,17.05-10.7,7.73-29.74C308.87,163.35,302.2,151.15,283.05,140.1Z"/><path class="cls-1" d="M226.74,117.65a.4.4,0,0,0-.75-.1c-1.19,2.35-4.55,7.87-10.35,9.36-7.33,1.88-33.55,12.66-18.92,31.84a1.48,1.48,0,0,0,1.53.54c3.52-.86,16-4.95,23.94-21.09,0,0-2.26,15.29-19.9,22.64l-.82.5a.58.58,0,0,0,.1,1c3.88,1.45,17.73,5.11,25-12.87C226.61,149.49,230.88,137.48,226.74,117.65Z"/><path class="cls-1" d="M325.16,79.65a.4.4,0,0,1,.12.75c-2.35,1.25-7.86,4.75-9.26,10.63-1.77,7.44-12.17,34.12-31.8,19.69a1.5,1.5,0,0,1-.58-1.54c.8-3.56,4.71-16.25,20.86-24.56,0,0-15.4,2.57-22.49,20.51l-.5.84a.58.58,0,0,1-1-.08C279,102,275,88.09,293,80.37,293,80.37,305.07,75.84,325.16,79.65Z"/><path class="cls-1" d="M354.13,253.35a.5.5,0,0,1-.56.75c-3.12-.95-10.94-2.7-17.26,1.19-8,4.92-40.18,19.06-44.71-10.52a1.84,1.84,0,0,1,.84-1.83c3.79-2.4,18.19-10,39.43-3.21,0,0-15.6-11.14-37.34-1.73l-1.15.3a.71.71,0,0,1-.83-1c2.05-4.71,10.69-20.23,33.05-11.28C325.6,226.06,340,232.6,354.13,253.35Z"/><path class="cls-1" d="M332.87,161.32c-3.47,25-41.72,50.76-60.5,55.63a95.56,95.56,0,0,0-25.77,11c-2.37-17.45-3.49-43,1.78-59.31,7-21.56,20.17-52.85,22.26-58.42S275.5,97.69,273.42,90a136.49,136.49,0,0,1-15.65,34.42c-11.13,17.39-29.32,52.29-28.22,70,0,0-18.68-12.2-24.78-17.44s-14.45-9.4-28.71-35.48c0,0,0,27.12,25,48.68s30.6,45.2,30.6,48,6.26,40.33,5.57,51.46c0,0-25.73,9-23.65,40.33l8.24,100.19a1.46,1.46,0,0,0,2.92-.14l-1.37-94.71a3.89,3.89,0,0,1,7.78-.24l4.56,95a1.46,1.46,0,0,0,1.47,1.39h1.16a1.47,1.47,0,0,0,1.47-1.44l1.53-94.18a3.88,3.88,0,0,1,3.88-3.82h0a3.89,3.89,0,0,1,3.89,3.82L250.81,430a1.46,1.46,0,0,0,1.46,1.44h1.25a1.45,1.45,0,0,0,1.46-1.42l3-94.26a3.89,3.89,0,0,1,3.88-3.76h1.34a3.89,3.89,0,0,1,3.89,3.94l-1.24,94a1.46,1.46,0,0,0,1.47,1.48h.15a1.47,1.47,0,0,0,1.47-1.35L276.37,330s4.28-25.73-22.28-40.33c0,0-1.11-24.56-3.57-40.49a47.81,47.81,0,0,1,19.77-12.71c15.3-4.87,41.72-20.86,54.64-42.53S332.87,161.32,332.87,161.32Z"/><path class="cls-1" d="M51.51,445.13v6.57c0,1-.42,1.43-1.27,1.43h-16c-.6,0-.91.33-.91,1v11.48a.82.82,0,0,0,.91.93H47.19c1,0,1.42.5,1.42,1.5v6.5c0,1-.47,1.5-1.42,1.5H34.26c-.6,0-.91.33-.91,1v19.13c0,.95-.45,1.43-1.34,1.43H22.49c-.89,0-1.34-.48-1.34-1.43v-51c0-.95.45-1.43,1.34-1.43H50.24C51.09,443.7,51.51,444.18,51.51,445.13Z"/><path class="cls-1" d="M69.79,445.13v51c0,.95-.45,1.43-1.35,1.43H58.92c-.89,0-1.34-.48-1.34-1.43v-51A1.26,1.26,0,0,1,59,443.7h9.44C69.34,443.7,69.79,444.18,69.79,445.13Z"/><path class="cls-1" d="M113.52,489.54v6.57c0,.95-.45,1.43-1.35,1.43H81.44c-.89,0-1.34-.48-1.34-1.43v-51c0-.95.45-1.43,1.34-1.43h29.17a1.26,1.26,0,0,1,1.42,1.43v6.57a1.26,1.26,0,0,1-1.42,1.43H93.07c-.51,0-.76.33-.76,1V464c0,.62.27.93.83.93h13.69c.88,0,1.31.48,1.31,1.43v6.57c0,.95-.43,1.43-1.31,1.43H93.14c-.56,0-.83.32-.83,1V487.1c0,.67.3,1,.9,1h19C113.07,488.11,113.52,488.59,113.52,489.54Z"/><path class="cls-1" d="M151.37,489.54v6.57c0,.95-.45,1.43-1.35,1.43H122.34c-.89,0-1.34-.48-1.34-1.43v-51c0-.95.45-1.43,1.34-1.43h9.52c.9,0,1.35.48,1.35,1.43v42a.88.88,0,0,0,1,1H150C150.92,488.11,151.37,488.59,151.37,489.54Z"/><path class="cls-1" d="M204.18,470.29a32.2,32.2,0,0,1-3,14.23,21,21,0,0,1-8.43,9.31q-6.47,3.71-16.6,3.71H158.7c-.89,0-1.34-.48-1.34-1.43v-50.9c0-1,.47-1.51,1.42-1.51h18.45A36.73,36.73,0,0,1,190,445.58a18.91,18.91,0,0,1,8.36,6.2Q204.18,459.21,204.18,470.29Zm-12.68.12q0-17.28-15.69-17.28H170.4c-.56,0-.84.33-.84,1v33a.88.88,0,0,0,1,1h4.54Q191.51,488.11,191.5,470.41Z"/><path class="cls-1" d="M246.34,449.49v4.1c0,.6-.24.89-.72.89H238.2q-.45,0-.45.6v26.21c0,.59-.24.89-.72.89h-5.42c-.48,0-.72-.3-.72-.89V455.08c0-.4-.15-.6-.47-.6H223c-.48,0-.72-.29-.72-.89v-4.1c0-.59.24-.89.72-.89h22.59C246.1,448.6,246.34,448.9,246.34,449.49Z"/><path class="cls-1" d="M275.58,465.31q0,7.86-3.61,12.53t-10.68,4.73q-6.93,0-10.56-4.63T247,465.45q0-7.86,3.61-12.61t10.64-4.67q6.91,0,10.63,4.58T275.58,465.31Zm-7.11.09q0-11.44-7.18-11.45a5.92,5.92,0,0,0-5.29,2.91c-1.24,1.93-1.86,4.77-1.86,8.49q0,11.5,7.15,11.5a6,6,0,0,0,5.34-2.93Q268.48,471,268.47,465.4Z"/><path class="cls-1" d="M329,445.13v6.57c0,1-.42,1.43-1.27,1.43h-16c-.61,0-.91.33-.91,1v11.48a.81.81,0,0,0,.91.93h12.93c.95,0,1.42.5,1.42,1.5v6.5c0,1-.47,1.5-1.42,1.5H311.73c-.61,0-.91.33-.91,1v19.13c0,.95-.45,1.43-1.34,1.43H300c-.89,0-1.34-.48-1.34-1.43v-51c0-.95.45-1.43,1.34-1.43h27.75C328.56,443.7,329,444.18,329,445.13Z"/><path class="cls-1" d="M383.1,470.49q0,12.6-6.39,20.09t-18.89,7.58q-12.24,0-18.67-7.42t-6.53-20q0-12.6,6.39-20.21t18.81-7.5q12.24,0,18.82,7.34T383.1,470.49Zm-12.56.15q0-18.36-12.72-18.36a10.78,10.78,0,0,0-9.35,4.66q-3.29,4.67-3.29,13.62,0,18.44,12.64,18.44a10.81,10.81,0,0,0,9.45-4.7Q370.54,479.61,370.54,470.64Z"/><path class="cls-1" d="M431.85,496.65c0,.59-.35.89-1.05.89H419.35a2.21,2.21,0,0,1-2-1.2l-12-21.76a1.2,1.2,0,0,0-1.06-.77h-.5c-.46,0-.69.26-.69.77v21.53c0,.95-.45,1.43-1.35,1.43h-9.37c-.9,0-1.34-.48-1.34-1.43v-51c0-.95.44-1.43,1.34-1.43h17.25a34.5,34.5,0,0,1,9.07.95,12.84,12.84,0,0,1,5.54,3.11q3.27,3.48,3.26,9.32a16.19,16.19,0,0,1-2.57,9.54,12.42,12.42,0,0,1-7.09,4.87c-.55.18-.83.37-.83.58a1,1,0,0,0,.29.77l13.91,22.26A3.93,3.93,0,0,1,431.85,496.65Zm-16.53-38.38q0-3.66-1.9-5.43c-1.28-1.17-3.29-1.76-6.05-1.76H404c-.5,0-.76.29-.76.86v13.14c0,.54.26.81.76.81h3.56Q415.33,465.89,415.32,458.27Z"/><path class="cls-1" d="M478.85,496.57c0,.65-.37,1-1.13,1H466.57a2.18,2.18,0,0,1-1.92-1.28l-13-21.91a1.13,1.13,0,0,0-1-.62c-.6,0-.91.34-.91,1v21.37c0,.95-.44,1.43-1.34,1.43h-9.52c-.89,0-1.34-.48-1.34-1.43v-51c0-.95.45-1.43,1.34-1.43h9.52c.9,0,1.34.48,1.34,1.43v19.79c0,.64.31,1,.91,1,.39,0,.81-.33,1.27-1l13.84-19.86a2.52,2.52,0,0,1,2.15-1.36h8.93c.63,0,.94.3.94.89a2.9,2.9,0,0,1-.65,1.59l-15,20.63a2.32,2.32,0,0,0-.46,1.09,1.46,1.46,0,0,0,.38.92L478.27,495A3.48,3.48,0,0,1,478.85,496.57Z"/><path class="cls-1" d="M231.86,496.49a19.37,19.37,0,0,1-10.55-2.8,1.74,1.74,0,0,1,2-2.86c.3.21,7,4.65,17.71.24,12.34-5.08,24.88-5.22,35.3-.39a1.74,1.74,0,1,1-1.46,3.16c-9.54-4.42-21.08-4.26-32.51.45A27.54,27.54,0,0,1,231.86,496.49Z"/></svg>