<svg id="Capa_1" data-name="Capa 1" xmlns="http://www.w3.org/2000/svg" viewBox="0 0 500 500"><defs><style>.cls-1{fill:#fff;}</style></defs><path class="cls-1" d="M344,202.54c-16.94-46-81.23-45.26-81.23-45.26.11-3.42.06-6.71-.12-9.87l6.9-6.37a3.65,3.65,0,0,1,3.11-.91,62.45,62.45,0,0,0,40-7.07c16.55-9.13,23.71-28.53,26.15-37.12a3.65,3.65,0,0,0-3.2-4.66c-10.23-.86-36.24-2.21-48.66,4.89-13.65,7.8-17.1,30.9-17.75,36.68a3.63,3.63,0,0,1-1.16,2.27l-6,5.51c-2.59-21.81-11-36-13.53-39.81a1.36,1.36,0,0,0-1.8-.44l-9.7,5.38a1.36,1.36,0,0,0-.4,2c8.44,10.49,15.28,49.47,15.28,49.47C158,164,143.81,246,143.07,254.18s-9.69,96.15,75.28,119.25c77.92,21.19,114.47-18.42,120-25.14a1.85,1.85,0,0,0-2.51-2.68c-67.54,47.16-109.36,1.65-116.75-7.95s-19.37-35-18.63-75.28c.77-41.74,21.62-87.95,72.3-92.43,44.08-3.88,63.92,26.06,68.34,33.92a1.58,1.58,0,0,0,2.5.34A1.61,1.61,0,0,0,344,202.54Z"/><path class="cls-1" d="M329.31,234a.71.71,0,0,1-.77-.57c-.92-4.45-7.62-31.36-35.66-30.68-30.56.75-34.28,19.38-32.79,26.09s8.2,16.39,24.59,21.61,40.63,13.79,48.82,28.7,11.18,44-18.63,55.15c-29.54,11.08-78.1,12.65-87-31.55a1,1,0,0,1,1-1.24H232a1,1,0,0,1,1,.84c1,5.18,7.7,32.63,40.1,31.95,35.78-.74,35.78-21.61,33.54-26.08s-4.11-9.51-23.3-16.68-53.47-22.08-53.47-48.17,18.64-44.72,47-46.21c28.05-1.48,48.06,6.55,56.4,35.66a.73.73,0,0,1-.64.93Z"/><path class="cls-1" d="M42.15,107.87l25.72,19.2-3.45,4.62-11.15-8.33-7.52,10.07,11.15,8.33-3.44,4.62L27.74,127.17l3.44-4.61,10.66,8,7.52-10.07-10.66-8Z"/><path class="cls-1" d="M91.48,92.65l-8.39,7.95L86.26,107l-4.45,4.21-13.91-31L72,76.22l30.19,15.65-4.56,4.31Zm-3.9-2.21L74.25,82.85l6.84,13.73Z"/><path class="cls-1" d="M101.31,52.09l4-2.56L128.7,59.85,117.23,41.91l4.66-3L139.2,66l-4,2.56L111.81,58.2l11.47,17.94-4.67,3Z"/><path class="cls-1" d="M148.62,25.65,158.73,22c8.59-3.12,14.67.35,18.34,10.48s1.21,16.57-7.38,19.69l-10.12,3.67Zm19.51,22.2c5.84-2.12,6.51-4.8,3.4-13.38s-5.42-10.36-11.25-8.24l-4.71,1.71,7.86,21.62Z"/><path class="cls-1" d="M254,18.76c-.26,6.7-3.66,9.9-10.24,9.64l-5.23-.21-.47,12L232.34,40,233.6,7.89l11,.43C251.18,8.58,254.3,12,254,18.76Zm-5.56-.25c.17-4.43-.74-5.57-4.57-5.72l-4.73-.18-.43,11.06,4.68.19C247.29,24,248.3,23,248.48,18.51Z"/><path class="cls-1" d="M279.8,11.05l5.89.79-4.27,31.81-5.89-.79Z"/><path class="cls-1" d="M307.5,32c2.84-10.71,8.81-14.81,18-12.36a19.22,19.22,0,0,1,6,2.68l-2.29,4.32a11.55,11.55,0,0,0-4.72-2.38c-6.56-1.74-8.89.09-11.32,9.25S311.92,45.24,318.41,47a11.83,11.83,0,0,0,6.06.16l-.22,5a17.57,17.57,0,0,1-7.22-.58C307.85,49.1,304.69,42.63,307.5,32Z"/><path class="cls-1" d="M359.37,67.46l-3.32-19.07-6.78,14.26-5.21-2.47,13.79-29,5.21,2.48-6.48,13.62L372.4,38.1,378.57,41l-17,9.22,4.23,20.27Z"/><path class="cls-1" d="M401.83,89.87,399,93.57l-15.86-12L402.56,56,418,67.69l-2.76,3.64-10.89-8.24L399,70.26l9.88,7.48-2.67,3.53-9.88-7.48-5.72,7.56Z"/><path class="cls-1" d="M438.81,86.76l7.22,8c6.13,6.77,5.2,13.71-2.79,20.94s-14.9,7.36-21,.59l-7.22-8Zm-13.2,26.45c4.17,4.6,6.9,4.22,13.67-1.9s7.56-8.92,3.39-13.52l-3.35-3.72L422.26,109.5Z"/><path class="cls-1" d="M446.16,141c2-1.48,3.35-1.24,4.83.81s1.28,3.3-.74,4.76-3.39,1.28-4.87-.77S444.11,142.43,446.16,141Z"/><path class="cls-1" d="M43.64,332.28,15.86,344.8l-2.25-5,12.05-5.43-4.9-10.88-12,5.43-2.25-5,27.78-12.52,2.25,5L25,321.61l4.9,10.88,11.51-5.19Z"/><path class="cls-1" d="M43.74,379l-6.09-9.13-6.47,1.95L28,367l31.26-8,3,4.5L42.76,389.15l-3.3-4.95Zm2.7-3.3,9.23-11.26-13.94,4.2Z"/><path class="cls-1" d="M80.57,387.6l3.14,3.25-5.22,23.69L93,400.5l3.65,3.79L74.76,425.45l-3.12-3.24,5.21-23.7-14.54,14-3.66-3.79Z"/><path class="cls-1" d="M113.21,418.3l8.43,5.78c7.14,4.9,7.82,11.51,2,19.94s-12.12,10.09-19.27,5.19L96,443.43Zm-6.35,27.32c4.86,3.34,7.3,2.38,12.2-4.76s5-9.91.15-13.24l-3.92-2.69-12.35,18Z"/><path class="cls-1" d="M176.19,451.23l9.88,2.62c8.38,2.22,11.23,8.22,8.61,18.11s-8,13.56-16.42,11.34l-9.88-2.62Zm3.18,27.87c5.7,1.51,7.68-.2,9.9-8.58s1.39-11-4.3-12.52l-4.59-1.21-5.6,21.09Z"/><path class="cls-1" d="M236.32,487.91l-.35,4.38-18.82-1.54,2.49-30.37,18.36,1.5-.35,4.32-12.92-1.05-.69,8.51,11.72,1-.35,4.19-11.72-1-.73,9Z"/><path class="cls-1" d="M279.35,486.62l.27,4.71-18.23,1L259.64,462l5.55-.31,1.48,25.71Z"/><path class="cls-1" d="M298,458l5.55-1,5.62,29.95-5.54,1Z"/><path class="cls-1" d="M323,452.62l5.61-2,15.09,20-1.22-25.05,5.47-2,.45,32.24-5.16,1.87Z"/><path class="cls-1" d="M394.94,447.09l2.31,3.74-16.07,9.91-16-25.94,15.69-9.67,2.28,3.69-11,6.8,4.48,7.27,10-6.17,2.21,3.58-10,6.17,4.72,7.66Z"/><path class="cls-1" d="M397.43,412.42l7.76-7.31c4.63-4.38,9-4.37,13.13,0,3.29,3.49,3.62,7.05,1.13,10.59l14.59,4L429.52,424l-13.63-4.19-2.09,2,8.51,9-4,3.75Zm16.95,3.24c2.77-2.61,2.78-4,.06-6.86s-4-2.91-6.79-.32l-3.46,3.27,6.75,7.16Z"/><path class="cls-1" d="M458.29,382.43l3.56,2.58-11.1,15.27L426.1,382.36l10.83-14.91,3.51,2.55-7.62,10.49,6.91,5,6.91-9.51,3.4,2.47L443.13,388l7.28,5.29Z"/><path class="cls-1" d="M447.93,349.3l4.48-9.19c3.81-7.79,10.24-9.42,19.43-4.94s11.76,10.51,8,18.3l-4.48,9.19Zm28,2.27c2.59-5.3,1.29-7.57-6.5-11.37s-10.53-3.5-13.11,1.8l-2.09,4.27,19.62,9.57Z"/><path class="cls-1" d="M491.08,318.61c-2.29-.72-2.85-1.84-2.13-4.13s1.79-2.85,4.05-2.14,2.89,1.86,2.17,4.15S493.37,319.33,491.08,318.61Z"/><path class="cls-1" d="M22.1,235v2.67H10.64V219.2H21.83v2.64H14V227H21.1v2.55H14V235Z"/><path class="cls-1" d="M35.13,236.91l.66-2.76a11.22,11.22,0,0,0,4.84,1.09c2.32,0,3-.61,3-2.73,0-1.48-.57-1.84-3.87-3.22-2.9-1.2-4.24-2.52-4.24-5.17,0-3.45,1.93-5.16,5.84-5.16a12.8,12.8,0,0,1,4.86,1l-.69,2.78a8,8,0,0,0-4-1c-2.09,0-2.69.52-2.69,2.31s.68,2.07,3.94,3.42c2.94,1.21,4.23,2.45,4.23,4.91,0,3.79-2.11,5.67-6.37,5.67A14,14,0,0,1,35.13,236.91Z"/><path class="cls-1" d="M72.45,222h-5v15.7H64.12V222h-5V219.2H72.45Z"/><path class="cls-1" d="M83.63,236c0-1.46.55-2,2-2s2,.52,2,1.95-.55,2-2,2S83.63,237.43,83.63,236Z"/><path class="cls-1" d="M396,235.43l5.51-6c1.95-2.11,2.62-3.34,2.62-4.58,0-2-.53-2.49-2.62-2.49a8.27,8.27,0,0,0-4.49,1.32l-.64-2.72a10.94,10.94,0,0,1,5.55-1.35c3.51,0,5.53,1.78,5.53,4.9,0,2.22-1,4-3.63,6.83l-3.34,3.5h7.08v2.81H396Z"/><path class="cls-1" d="M420.1,228.81c0-6.12,2.32-9.15,7-9.15s7,3,7,9.15-2.32,9.15-7,9.15S420.1,234.93,420.1,228.81Zm10.64,0c0-5.14-.73-6.42-3.64-6.42s-3.64,1.28-3.64,6.42.73,6.39,3.64,6.39S430.74,233.92,430.74,228.81Z"/><path class="cls-1" d="M446.76,228.81c0-6.12,2.32-9.15,7-9.15s7,3,7,9.15-2.32,9.15-7,9.15S446.76,234.93,446.76,228.81Zm10.65,0c0-5.14-.73-6.42-3.64-6.42s-3.64,1.28-3.64,6.42.73,6.39,3.64,6.39S457.41,233.92,457.41,228.81Z"/><path class="cls-1" d="M473,237.27l.61-2.78a9,9,0,0,0,3.7.73c2.75,0,3.44-.61,3.44-3s-.52-3-2.64-3a2.3,2.3,0,0,0-2.22.89l-2.14-.58.76-9.6h9v2.68h-6.51l-.37,4.86a3.72,3.72,0,0,1,2.42-.75c3.24,0,5,1.91,5,5.46,0,3.88-2.19,5.8-6.61,5.8A13.39,13.39,0,0,1,473,237.27Z"/></svg>