<svg id="Capa_1" data-name="Capa 1" xmlns="http://www.w3.org/2000/svg" viewBox="0 0 500 500"><defs><style>.cls-1{fill:#fff;}</style></defs><path class="cls-1" d="M371,188.89c0-7.7-.09-15.41.06-23.11.05-2.65-.7-4.21-3.41-4.76-2-.4-3.91-1.05-5.86-1.63-1-.3-2-.76-1.93-2s1.17-1.54,2.21-1.54q17.49,0,35,0c1,0,2.17.17,2.31,1.47s-.81,1.81-1.82,2.1a48.17,48.17,0,0,1-5,1.27c-2.9.53-3.91,2.1-3.9,5.08.09,28.69.06,57.37.06,86.05,0,9.23.09,18.45-.05,27.67,0,2.94,1.1,4.3,3.92,4.61a22.26,22.26,0,0,1,3.84.89c1.32.39,3.12.51,2.93,2.45s-2.06,1.6-3.38,1.61c-8.82,0-17.63,0-26.45,0-2.43,0-4.87,0-7.3,0-1,0-2.15-.15-2.33-1.45s.69-1.86,1.71-2.18c2.23-.68,4.47-1.35,6.73-1.89a3,3,0,0,0,2.71-3.38q-.06-27.83,0-55.65c0-2.28-1-3-3.12-3q-15.35.08-30.71,0c-2.31,0-3.27.83-3.26,3.2q.08,27.68,0,55.35c0,2,.78,3.2,2.84,3.62s4.13,1,6.17,1.61c1.17.33,2.05,1,1.81,2.4s-1.32,1.39-2.36,1.4q-17.18,0-34.36,0c-1.12,0-2.37,0-2.52-1.55s.88-1.91,2-2.23c1-.27,1.93-.63,2.92-.84,6.88-1.41,5.81-1.66,5.81-7.63,0-36.79,0-73.58.08-110.37,0-3.2-.58-5.24-4.1-5.7a30.7,30.7,0,0,1-5-1.4c-.9-.27-1.78-.7-1.7-1.83.08-1.32,1.13-1.57,2.18-1.63s2.23,0,3.34,0l28.59,0c1.11,0,2.23,0,3.34.13a1.62,1.62,0,0,1,1.68,1.45,1.66,1.66,0,0,1-1.3,1.82c-2.13.65-4.27,1.29-6.43,1.82s-3.06,1.57-3.05,3.82q.09,24,0,48c0,2.18.79,3.1,3,3.09q15.51-.09,31,0c2.22,0,3.06-.83,3-3.05C370.9,204.91,371,196.9,371,188.89Z"/><path class="cls-1" d="M226.67,346.75h-1.16c-3.37-.15-6.95-.1-8.75-3.64-1.89-3.73-.26-7,1.81-10.22,3.89-6.05,7.29-12.38,10.62-18.75a4.87,4.87,0,0,0,.36-4.39c-.57-1.29-1.12-2.89-2.58-3.17s-2.05,1.38-2.81,2.4a47.23,47.23,0,0,0-8.92,22.31c-.75,5.62-2.4,11-7.84,14.08a13.37,13.37,0,0,1-13.36.09c-2.28-1.23-2.69-3.43-1.74-5.81,2-5,3.86-10,6.07-14.91,1.95-4.32,1.57-8.15-.4-12.47a93.43,93.43,0,0,1-8.19-31.91,9.18,9.18,0,0,1,1.63-6.35c1.1-1.45.53-2.14-.58-2.93-12-8.57-19.7-20.47-26.32-33.26-2.21-4.27-5.45-8.19-5.09-13.44.12-1.83-.6-4.49,1.69-5,2.59-.54,3,2.3,3.65,4.08,4.71,13.34,12.13,25.13,20.64,36.29,3.27,4.29,7.75,7,12.76,9,4.05,1.6,8.13,3.12,12.32,4.33,1.2.35,3.14.62,3,2.06-.21,1.89-2.27,1.64-3.73,1.67-4.74.09-9.22-1.17-13.66-2.65-.71-.23-1.53-1.05-2.19-.2-.5.65.26,1.3.54,1.93a42,42,0,0,1,2.69,10.26c1.44,8.6,3.76,17,5.66,25.5a5.17,5.17,0,0,0,.56,1.73c3.23,4.69,2.52,8.89-.67,13.49-2.27,3.27-3.48,7.29-5,11.05-1.11,2.75-.48,3.63,2.47,4.07,4.54.67,6.23-.24,8.09-4.46A51.15,51.15,0,0,0,211.83,325a33,33,0,0,1,5.63-13.61c8-11.78,12.93-25,17.16-38.42,3.61-11.49,6.45-23.21,8.91-35,1-4.84,2.71-9.54,4.11-14.3.36-1.25,1-2.32,2.53-2s1.77,1.59,1.65,2.84c-.72,7.76-1.35,15.54-3.31,23.12-1.75,6.77-3.36,13.58-5.42,20.25-2.43,7.9-.88,15.15,2.59,22.3a79.79,79.79,0,0,0,5.91,9.54c2.23,3.31,2.66,6.65.12,9.85-7,8.7-10,19.18-13.2,29.49-1.54,5-4,7.42-9.06,7.54C228.24,346.61,227,346.73,226.67,346.75Zm1.45-4.2c3.2.44,4.79-2,5.89-4.89,1.52-4,2.74-8.05,4.34-12,2.41-5.87,4.64-11.82,8.16-17.21,2.18-3.36,1.91-6.16-.23-8-3.19-2.8-6.54-5.42-9.71-8.24-1.54-1.36-2.39-.85-3.33.62-2.52,3.93-2.84,7.88-.47,12,2.86,4.95,2.39,9.81-.35,14.69q-4.59,8.18-8.93,16.52C221.16,340.5,222.5,342.53,228.12,342.55Z"/><path class="cls-1" d="M136.24,270.16c8.35-2.19,16.26-5.62,24.27-8.76A18.34,18.34,0,0,1,170,260c.91.13,2,.33,2.2,1.35.24,1.19-1,1.49-1.75,1.72-9.1,2.65-17.38,7.19-26,11a24.5,24.5,0,0,1-10.67,2.07c-3.52-.1-5.42,1.58-6.75,4.54-3.86,8.64-4.37,17.6-2.73,26.78q1.5,8.37,3.1,16.73a21.29,21.29,0,0,1-2.34,14.12c-2.72,5.28-8.28,7.17-15.61,5.2-2.55-.69-4.82-1.15-7.27.24-1.43.81-3.16.66-4.78.54-4.19-.31-5.6-2-5.71-6.22s1.61-8.15,3.14-12c3.23-8.06,3.24-16.31,1.4-24.5s-4.19-16.49-8.11-24.13A7.18,7.18,0,0,0,85,274c-8.7-4.27-12.21-11.7-12.58-21-.2-4.94-.22-9.89-.45-14.83a16.4,16.4,0,0,0-4.4-10.74c-.59-.64-1.92-1.44-1-2.49s1.94-.13,2.81.25a13.16,13.16,0,0,1,7.93,9c1.44,5.89,2.3,11.85,1.5,18s-.53,12.53,5.42,16.7c3.59,2.52,7.82,3.22,12.07,3.66,2.21.23,1.23-1.46.91-2.24-1.16-2.8-2.65-5.47-3.77-8.28-3.14-7.93-6-15.91-5.79-24.67.16-6.05,2.13-11.49,5-16.71.49-.91,1.08-1.83,2.34-1.44s1.29,1.5,1.2,2.51c-.38,3.93-1.43,7.75-1.92,11.68-1.31,10.45,1.47,20.1,5.27,29.55,2.19,5.44,4.9,10.66,7,16.16a36.59,36.59,0,0,1,2.36,11.26c.4,8.59.53,17.2.74,25.8a6.13,6.13,0,0,1-.32,1.78c-.24.8-.61,1.57-1.59,1.6s-1.39-.79-1.53-1.6c-.64-3.78-1.59-7.59-1.34-11.43.65-9.79-1.4-19.09-4.69-28.2a4.16,4.16,0,0,0-5.67-1.93,1.42,1.42,0,0,0-.66,1.82,28.23,28.23,0,0,0,1.3,3.72c4.23,9.1,6.49,18.74,7.78,28.62.84,6.42-.76,12.47-3.48,18.26-.6,1.29-1.3,2.53-1.89,3.82-2,4.32-1.5,5.12,3,6.28,2.23.58,3.51.21,3.71-2.35.19-2.31.58-4.61.94-6.91.15-.95.61-1.78,1.78-1.66s1.46,1,1.47,2a17.76,17.76,0,0,1-.1,2.73c-.58,4.54.07,5.88,3.41,6.86,3.74,1.09,7.1-.26,8.67-3.64a24.79,24.79,0,0,0,2-10.07c.14-6.22-1.1-12.32-2.22-18.36a41.77,41.77,0,0,1,.87-20.4c1.66-5.31,3.65-10.53,5.48-15.78.55-1.59,1.2-2.36,3.1-1.32a7.81,7.81,0,0,0,6.76,0Z"/><path class="cls-1" d="M273.48,217.79c-1-.32-1.3-.44-1.59-.49-9.5-1.44-12-4.15-14.17-13.43a47.54,47.54,0,0,0-9.08-18.69c-1.12-1.44-2.37-2.81-2.78-4.65-.22-1-.52-2.09.38-2.85s2-.29,2.84.19c4.81,2.62,8.06,6.77,10.49,11.47a66.31,66.31,0,0,1,5.16,13.93c1.79,6.94,8.79,10.12,15.29,7.12a34.11,34.11,0,0,0,9.69-6.13c4-3.81,5.45-8.64,6.46-13.77.18-.89.35-1.78.57-2.67.12-.49.28-1,.85-1.15.74-.18,1.09.39,1.4.9a12.37,12.37,0,0,1,.85,1.61c2.69,6.43.3,17-4.83,21.62-5.4,4.87-11.77,8.18-18.23,11.34-3.09,1.51-6.29,2.78-9.43,4.19a14,14,0,0,1-8.9,1,3.08,3.08,0,0,1-2.76-2.49c-.21-1.63,1.25-2.17,2.38-2.78,1.4-.75,3-.52,4.48-.58A20.42,20.42,0,0,0,273.48,217.79Z"/><path class="cls-1" d="M158.14,172.1c-4.34-.61-8-2.34-11.88-3.6-5.57-1.84-11-4-16.52-6.08a23.38,23.38,0,0,1-4.3-2.23,2.51,2.51,0,0,1-1.17-2.63c.27-1.18,1.38-1.44,2.36-1.62,2.19-.42,4.21.41,6.18,1.19q10,4,20,8.08a10.58,10.58,0,0,0,8.54-.1,97.28,97.28,0,0,1,35-8.14c10.09-.34,20,.12,29.47,4.17,4.64,2,8.6,4.88,12.62,7.77a6.31,6.31,0,0,1,1.29,1.29c1.11,1.46,2.52,3.19,1.08,4.86s-3.42.94-5-.16A65.78,65.78,0,0,0,218.24,166c-8.93-2.86-18.07-3.24-27.33-2.58A86.65,86.65,0,0,0,161.67,171,28,28,0,0,1,158.14,172.1Z"/><path class="cls-1" d="M323.93,332.84c2.18-8.25,4.25-16.06,6.29-23.88.41-1.57.73-3.16,1.13-4.72.18-.68.33-1.48,1.24-1.51s1.19.71,1.41,1.37c1.21,3.76,2.48,7.5,3.54,11.29,1.55,5.55,2.89,11.16,5.14,16.5,1.17-.24,1.12-1.2,1.31-1.89,1.75-6.66,3.43-13.33,5.19-20,.54-2,.83-3.67-1.66-4.73-1.55-.67-.79-1.75.39-2a20.52,20.52,0,0,1,6.95-.11,1.12,1.12,0,0,1,1.06.93,1,1,0,0,1-.75,1.18c-2.9,1-3.39,3.47-4,6-2.56,10.3-5.11,20.61-7.78,30.88-.43,1.64-.24,4.38-2.28,4.46s-1.77-2.63-2.24-4.16c-2.41-7.74-4.67-15.51-7-23.26-.19-.66-.46-1.29-.69-1.93-1.26.16-1.22,1.07-1.41,1.83-2.1,8.23-4.18,16.47-6.33,24.69-.28,1.09-.31,2.78-1.89,2.7-1.32-.06-1.3-1.62-1.59-2.65q-5-17.82-10-35.65a3.45,3.45,0,0,0-2.76-2.85c-.58-.11-1.25-.41-1.21-1.15.05-.95.9-1.05,1.58-1.06,3.24,0,6.48,0,9.72,0a1.43,1.43,0,0,1,1.49.84c.24.71-.26,1.16-.87,1.38-1.3.49-1.51,1.39-1.27,2.67,1.53,8.07,4.69,15.71,6.37,23.74C323,332,323.34,332.15,323.93,332.84Z"/><path class="cls-1" d="M477.56,334.94c0,1.72,0,3.44,0,5.16s.06,3.29,2.05,3.93c.59.19,1.18.6,1,1.32s-.88.8-1.49.8c-2.94,0-5.87,0-8.81,0-.61,0-1.3-.1-1.52-.78s.35-1.11.89-1.39c1.39-.72,1.64-1.94,1.64-3.33q0-16,0-31.93c0-1.48-.1-2.87-1.89-3.36-.57-.16-1.24-.45-1.07-1.23s1-1,1.67-1c2.74-.08,5.48-.23,8.21-.08a31.52,31.52,0,0,1,10.11,1.84,9.09,9.09,0,0,1,6.22,8.82c.14,4.26-1.43,7.48-5.48,9.27-.68.3-1.82.27-1.75,1.34.06.77,1,.87,1.63,1.19a7.91,7.91,0,0,1,4.32,6.56c.3,2.82.49,5.66.93,8.45.21,1.42,0,3.65,2.75,2.66.41-.15.78.17.89.62a1.86,1.86,0,0,1-.77,1.86,5.84,5.84,0,0,1-5.72,1.11,4.67,4.67,0,0,1-3.47-4.2c-.52-3.91-.92-7.84-1.36-11.76a5.35,5.35,0,0,0-3.09-4.56c-3.8-1.82-5.81-.62-5.87,3.54C477.54,331.49,477.57,333.21,477.56,334.94Zm-.1-20.24h.13c0,1.91,0,3.82,0,5.74s1.07,2.62,2.94,2.38c4.69-.6,7.07-3.24,7.24-8.11.19-5.26-1.83-7.93-6.59-9-2.05-.44-3.17.35-3.38,2.3C477.57,310.27,477.57,312.49,477.46,314.7Z"/><path class="cls-1" d="M450.28,346.19c-3.24,0-6.48,0-9.72,0-.79,0-1.78.14-2.12-.8s.55-1.2,1.16-1.51c1.35-.68,1.35-1.9,1.35-3.13q0-16.11,0-32.22c0-1.36-.07-2.65-1.66-3.21-.59-.21-1.12-.67-.94-1.37.22-.85,1-.9,1.73-.91,6.79,0,13.57,0,20.36,0,1.82,0,2.41,1.13,2.3,2.84-.13,2-.18,4-.24,6.05,0,.62.06,1.29-.67,1.52s-1.15-.26-1.53-.75a11.35,11.35,0,0,1-2.37-4.21c-.55-2.27-2-3-4.24-3-6.54-.13-6.54-.19-6.53,6.34,0,2.33,0,4.66,0,7,0,1.19-.17,2.62,1.48,2.9s3.19.37,4.32-1.34c.7-1.06.76-3.37,2.55-2.74,1.44.51.66,2.54.73,3.89.1,1.92,0,3.85,0,5.78,0,.77.12,1.79-.92,2-.87.17-1.08-.77-1.43-1.34-1-1.55-1.7-3.24-4-3.11-1.69.09-2.71.59-2.69,2.45,0,4.56,0,9.12.05,13.68a3.3,3.3,0,0,0,.48,1.72c1.32,2,9.64,1.23,10.67-.91.75-1.54,1.1-3.28,2.26-4.62.4-.46.84-1,1.51-.8s.72.9.78,1.5c0,.2,0,.41,0,.61-.06,8.67,1,7.69-7.19,7.71Z"/><path class="cls-1" d="M376.2,346.2c-.81,0-1.62,0-2.43,0-1.07-.08-2.49.43-3.1-.65-.76-1.34,1-1.41,1.53-2.15.83-1.18.12-2.38-.14-3.5-1.28-5.66-1.58-5.87-7.23-5.87-1,0-2,.07-3,0-2.19-.16-3.43.68-3.75,3a20.42,20.42,0,0,1-1.08,3.47c-.43,1.35-.57,2.59,1,3.34.64.3,1.32.73,1,1.61-.24.67-.91.76-1.52.77-1.93,0-3.85,0-5.77,0a1.21,1.21,0,0,1-1.24-.72.93.93,0,0,1,.58-1.23c3.64-1.3,3.8-4.81,4.65-7.68,2.88-9.8,5.47-19.68,8.27-29.51.45-1.56.39-4.13,2.33-4.19,2.2-.07,1.71,2.62,2.17,4.09,3.57,11.39,7,22.82,10.43,34.25a4.39,4.39,0,0,0,2.45,2.9c.53.25,1.26.5,1.12,1.24-.16.9-1,.87-1.71.88-1.52,0-3,0-4.56,0Zm-12-30.83c-1.54,5.2-2.85,9.62-4.14,14.05-.19.69-.35,1.66.49,1.84a20,20,0,0,0,7.51.05.94.94,0,0,0,.65-1.21A91.65,91.65,0,0,0,364.19,315.37Z"/><path class="cls-1" d="M424,324.73v15.18c0,1.65-.06,3.29,1.75,4.18.46.23.88.62.75,1.19-.16.73-.82.86-1.42.86-2.94,0-5.87,0-8.81,0-.61,0-1.31-.16-1.46-.84s.51-1,1.07-1.25c1.61-.62,1.91-1.91,1.91-3.43q0-16.1,0-32.19c0-1.34,0-2.74-1.9-2.85-1.62-.09-3,.18-3.59,2a11.53,11.53,0,0,1-2.23,4.6c-.48.51-1,1.11-1.81.76-.64-.27-.68-.95-.73-1.56,0-.3,0-.6,0-.91-.27-7.5-.27-7.5,7.2-7.49,5.36,0,10.73.05,16.09,0,2.39,0,3.63.83,3.5,3.36-.09,1.61,0,3.24,0,4.86,0,.86.24,2-.93,2.3s-1.46-.86-2-1.5a8.29,8.29,0,0,1-1.87-4.1c-.38-1.84-1.51-2.48-3.29-2.32-2,.17-2.09,1.58-2.09,3.07Q424,316.68,424,324.73Z"/><path class="cls-1" d="M396.31,346.18c-3.14,0-6.28,0-9.42,0-.8,0-1.79.08-2.09-.87s.53-1.22,1.19-1.5c1.42-.6,1.42-1.83,1.42-3.06q0-16,0-31.92c0-1.64-.21-3-2.11-3.53a1.07,1.07,0,0,1-.93-1.33,1.38,1.38,0,0,1,1.46-.89q4.71,0,9.41,0a1.28,1.28,0,0,1,1.4.94c.15.76-.44,1.12-1,1.28-1.94.54-2,2.05-2,3.63,0,10.23,0,20.47,0,30.7,0,1.69-.23,3.55,2.24,4,3.91.68,6.78-.14,7.67-2.46a13.87,13.87,0,0,1,2.27-4.26c.48-.56,1-1,1.83-.71s.71.9.7,1.54c0,2.12-.06,4.25,0,6.37.06,1.94-1.24,2.08-2.63,2.09-3.14,0-6.28,0-9.42,0Z"/><path class="cls-1" d="M135.17,201c-.15,3.32.4,6.7-.76,9.94-.3.84-.49,2-1.52,2.08s-1.21-1.2-1.45-2a36.41,36.41,0,0,1-1.26-8.69c-.34-8-1.91-15.64-6-22.64a35.3,35.3,0,0,0-11.44-12.33c-1.42-.9-4.07-1.45-2.52-4.19,1.12-2,3.22-2.16,5.81-.41,8.28,5.62,14.51,12.75,17.3,22.65A51.9,51.9,0,0,1,135.17,201Z"/><path class="cls-1" d="M136.28,270.13c-3.17-.19-3.72-.93-2.06-3.65a88.65,88.65,0,0,0,7.6-16.17c3.66-10.11,5.17-20.16-.13-30.25-.88-1.68-2.33-4.15,0-5.43,2.44-1.35,3.8.91,5.16,2.85,6.85,9.74,6.09,19.69,1.18,29.85-1.89,3.92-3.35,8-5.19,12a47.33,47.33,0,0,1-6.56,10.86Z"/><path class="cls-1" d="M239.14,228.05a53.25,53.25,0,0,1-9.74,29.81,11.69,11.69,0,0,1-3.8,3.44c-.93.53-2,1.37-3,.36s-.17-1.93.27-2.8c2.24-4.31,4.46-8.62,6.8-12.87,4-7.29,6.25-14.9,4.76-23.31-.3-1.69-.29-3.43-.44-5.14-.09-1-.62-2.2.83-2.49,1.22-.24,1.71.86,2.16,1.78A21.81,21.81,0,0,1,239.14,228.05Z"/><path class="cls-1" d="M46.87,236.22c-4.14.3-7.94-1.83-10.84-5.73-.62-.83-1.7-1.88-.74-2.94s1.88.08,2.73.49a37.46,37.46,0,0,0,7.41,2.6A10.81,10.81,0,0,0,57.1,226.9c.84-1,1.67-3,3.19-2.14,1.82,1.05,1.08,3.21.33,4.67C57.93,234.62,53.21,236.21,46.87,236.22Z"/><path class="cls-1" d="M56,206.18c0-.71-.1-1.5.67-1.87,1-.46,1.51.28,2,.92a149,149,0,0,1,8,12.93,1.72,1.72,0,1,1-2.74,2.08C60.21,216.17,56.87,211.87,56,206.18Z"/><path class="cls-1" d="M67.21,191.16c-.12,3.35-5.45,8.05-8.74,7.57-1.83-.27-2.39-1.68-1.46-3.12a45.34,45.34,0,0,1,4.81-6.16c1.12-1.21,2.78-1,4.25-.45A1.68,1.68,0,0,1,67.21,191.16Z"/><path class="cls-1" d="M498.1,226.54c0-2.38-1.38-3.18-3.52-3.18H480c-4.87,0-9.73,0-14.59,0-.24,0-.48,0-.71,0v5.41h.59c3.85,0,7.71.11,11.55-.05,2.74-.11,3.81.86,3.75,3.67-.18,7.69.33,15.42-.81,23.06-1.32,8.82-3,17.53-8.15,25.18a14.81,14.81,0,0,1-19.73,4.75c-5.35-3.09-8.08-8.07-10.38-13.42-5.55-12.92-6.57-26.69-7.11-40.46s-.2-27.75,2.41-41.45c1.62-8.5,4.07-16.7,9.35-23.82,6.52-8.79,17.58-10.58,26.22-4.06a31.39,31.39,0,0,1,7.08,7.62h0s.16.24.43.68c.55.84,1.07,1.7,1.57,2.59a74.07,74.07,0,0,1,7.2,16.41h2.78V154a5.45,5.45,0,0,0-3.9.27,13.57,13.57,0,0,0-7,5.6c-.87,1.48-1.53,1.53-3,.23-4.86-4.36-10.52-7.24-17.2-7.34-10-.14-18.36,3.83-25.42,10.56-8.75,8.36-13.78,18.86-16.63,30.5-5.89,24-5.24,47.58,4.75,70.48,4.13,9.47,10.2,17.5,19.22,22.9,13.06,7.81,27.83,5.52,38.61-3.9,7.32-6.39,11.51-14.77,14.28-23.95C498.47,248.64,498.19,237.58,498.1,226.54Z"/><path class="cls-1" d="M87.92,153.41c-.88-.13-2-.33-2.49.6-.58,1.21.81,1.42,1.45,1.92,1.11.87,2.38,1.54,3.47,2.44,1.69,1.39,3.29,3,2.38,5.44-.85,2.23-2.89,2.93-5.19,3a42.19,42.19,0,0,1-9-1.12c-2.68-.53-5.43-1.34-8.11-.5-5.05,1.56-10,.46-15.05,0-2.62-.23-5.22-.71-7.84-.85-10.81-.59-20.65,3.3-30.57,6.75a8.53,8.53,0,0,0-4.4,4c-1.8,3.11-3.27,3.09-5.1-.06a6.45,6.45,0,0,1-.9-4.37c.26-1.6.59-3.19.85-4.78.18-1,1-2.41-.53-2.9-1.29-.43-1.83.92-2.44,1.84-.84,1.25-1.71,2.48-2.57,3.72,0,0-2,6.31,0,10.95,4,6.21,9.93,7,16.56,5.66,2.78-.55,5.62-.79,8.39-1.37,2.31-.49,3.2.21,3,2.58a29.06,29.06,0,0,0,2.28,13.95c2,4.58,2.18,9.4,1.79,14.3a26.25,26.25,0,0,0,.21,4.24c.07.88,0,2,1.2,2.15s1.6-1.06,1.79-2c1.79-9.17,1.63-18.12-3.1-26.52a5,5,0,0,1-.94-3.15c.75-5.3,1.06-10.68,2.34-15.91a4.94,4.94,0,0,1,4.67-4.09,24.62,24.62,0,0,1,5.15,0c3.39.44,4.61,2,4.74,5.49a90,90,0,0,1-1,13.92c-.13,1.16-.24,2.38,1.22,2.68,1.71.35,2-.94,2.18-2.22q.9-6.91,1.76-13.85c.56-4.42,4.62-6.71,8.89-5.07a7.05,7.05,0,0,1,3.77,3.38c2.4,4.72,6.68,6,11.39,6.84,10.23,1.93,18.83-4.08,20.07-14.31C99.07,159.24,93.6,154.26,87.92,153.41ZM27.08,176a16.33,16.33,0,0,1-12.78,3.26c3.68-3.62,7.2-5.92,11.89-5.74.69,0,1.55-.09,1.82.73S27.65,175.56,27.08,176Zm48.36-.7c-1.43-.39-3.17-1.2-2.88-3,.25-1.58,2-1.79,3.44-1.87,4.64-.25,9.19.52,14.55,1.27C85.57,176.06,80.69,176.73,75.44,175.28Z"/></svg>