<?xml version="1.0" encoding="utf-8"?>
<!-- Generator: Adobe Illustrator 27.8.1, SVG Export Plug-In . SVG Version: 6.00 Build 0)  -->
<svg version="1.1" id="Capa_1" xmlns="http://www.w3.org/2000/svg" xmlns:xlink="http://www.w3.org/1999/xlink" x="0px" y="0px"
	 viewBox="0 0 359.4 470.2" style="enable-background:new 0 0 359.4 470.2;" xml:space="preserve">
<style type="text/css">
	.st0{fill:#FFFFFF;}
</style>
<path class="st0" d="M175.9,0.2C198-0.7,219.6,2,240.4,9.3c8.1,2.8,15.5,7.6,23.5,10.8c27.7,11.4,48.6,30.8,65.5,54.6
	c22.4,31.4,31.8,66.7,29.7,104.8c-1.3,22.9-8.2,44.6-19.9,64.5c-15.1,25.5-30.5,50.9-46.8,75.6c-17.3,26.1-35.5,51.6-54.1,76.9
	c-15.4,20.9-31.9,40.9-47.8,61.3c-1.9,2.4-3.3,5.4-4.9,8.1c-2.9,4.9-6.3,5.8-10.4,2.2c-2.7-2.4-4.6-5.8-6.9-8.7
	c-4.1-5.4-8.3-10.8-12.4-16c-14.1-17.9-29.5-35-41.1-54.7c-2.2-3.7-5.4-6.9-8.1-10.4c-1.2-1.4-2.7-2.6-3.7-4.1
	c-8.6-12.4-17-24.9-25.5-37.3c-1.2-1.7-1.9-3.5-3.1-5c-14-18.7-26-38.5-38.5-58.2c-7-11.3-12-23.1-17.3-35c-0.9-2.1-1.7-4.4-2.9-6.1
	c-5.9-7.8-7.8-16.9-9.2-26.1c-0.3-1.7-0.4-3.3-1-4.9C-2,182.8-0.4,163.8,2,144.6c3.2-25.8,13.3-48.7,28.5-69.3
	c12.3-16.9,27-31.8,44.2-44.1c1.5-1,2.9-2.2,4.6-3c25-12.2,49.7-25.1,78.4-27.2C163.8,0.7,169.9,0.4,175.9,0.2L175.9,0.2z
	 M97.4,198.8L97.4,198.8v93.9c0,11.5,6.9,21,17.2,24.1c10.1,3.1,12.4,1.5,12.4-9c-0.3-60.1-0.5-120.2-0.8-180.2c0-6.9,0-7.1,7.2-7.1
	h141.4c1.1,0,2.6,0.4,3.6,0c1.3-0.6,3.3-2.1,3.3-2.9c-0.5-7.2,0.4-15.1-2.7-21.2c-6.1-12.3-17.3-19.5-31.7-19.6
	c-41.8-0.3-83.7,0-125.5,0c-8.8,0-15.2,4.1-20.1,11.3c-4.6,6.7-4.4,14.4-4.4,21.9c-0.1,29.6,0,59.3,0,89L97.4,198.8L97.4,198.8z
	 M203.8,203.8v0.3h39.6c3.6,0,5.1,1.3,4.7,5.3c-0.4,3.9-0.3,7.8-0.3,11.8c0,7.1-0.8,7.6-7.8,7.7c-19.5,0-38.8,0.1-58.3,0.4
	c-12.8,0.1-23.2,10.9-23.3,23.7v55.9c0,3,1,6,1.7,9c3.1-1.5,6.8-2.3,9.1-4.6c9.5-9.7,16.1-21.1,17.1-35.1c0.5-8.1,0.5-8.2,8.7-8.2
	c19.4,0,38.6-0.5,57.9,0.1c11.5,0.4,22.9-12.8,22.8-21.8V186c0-5.9-2.4-10.8-6.7-14.9c-1.1-1.1-2.8-2.2-3.5-3.6
	c-1.9-4.2-5.4-4.6-9.4-4.6h-80.8c-3.5,0-6.9-0.3-10.4-0.6c-5.4-0.5-6.5,0.3-6.7,5.8v27.7c0,7.6,0.6,8.2,8.3,8.2h36.9L203.8,203.8
	L203.8,203.8z"/>
</svg>
