<?xml version="1.0" encoding="UTF-8"?>
<svg id="Capa_1" data-name="Capa 1" xmlns="http://www.w3.org/2000/svg" viewBox="0 0 172.94 36.68">
  <defs>
    <style>
      .cls-1 {
        fill: #fff;
      }
    </style>
  </defs>
  <path class="cls-1" d="m13.73.01c1.72-.07,3.41.14,5.03.71.63.22,1.21.59,1.83.84,2.16.89,3.79,2.4,5.11,4.26,1.75,2.45,2.48,5.2,2.32,8.18-.1,1.79-.64,3.48-1.55,5.03-1.18,1.99-2.38,3.97-3.65,5.9-1.35,2.04-2.77,4.03-4.22,6-1.2,1.63-2.49,3.19-3.73,4.78-.15.19-.26.42-.38.63-.23.38-.49.45-.81.17-.21-.19-.36-.45-.54-.68-.32-.42-.65-.84-.97-1.25-1.1-1.4-2.3-2.73-3.21-4.27-.17-.29-.42-.54-.63-.81-.09-.11-.21-.2-.29-.32-.67-.97-1.33-1.94-1.99-2.91-.09-.13-.15-.27-.24-.39-1.09-1.46-2.03-3-3-4.54-.55-.88-.94-1.8-1.35-2.73-.07-.16-.13-.34-.23-.48-.46-.61-.61-1.32-.72-2.04-.02-.13-.03-.26-.08-.38-.58-1.45-.46-2.93-.27-4.43.25-2.01,1.04-3.8,2.22-5.41.96-1.32,2.11-2.48,3.45-3.44.12-.08.23-.17.36-.23C8.14,1.25,10.07.24,12.31.08c.47-.03.95-.05,1.42-.07Zm-6.13,15.5h0v7.33c0,.9.54,1.64,1.34,1.88.79.24.97.12.97-.7-.02-4.69-.04-9.38-.06-14.06,0-.54,0-.55.56-.55h11.03c.09,0,.2.03.28,0,.1-.05.26-.16.26-.23-.04-.56.03-1.18-.21-1.65-.48-.96-1.35-1.52-2.47-1.53-3.26-.02-6.53,0-9.79,0-.69,0-1.19.32-1.57.88-.36.52-.34,1.12-.34,1.71-.01,2.31,0,4.63,0,6.94v-.02Zm8.3.39v.02h3.09c.28,0,.4.1.37.41-.03.3-.02.61-.02.92,0,.55-.06.59-.61.6-1.52,0-3.03.01-4.55.03-1,.01-1.81.85-1.82,1.85v4.36c0,.23.08.47.13.7.24-.12.53-.18.71-.36.74-.76,1.26-1.65,1.33-2.74.04-.63.04-.64.68-.64,1.51,0,3.01-.04,4.52.01.9.03,1.79-1,1.78-1.7v-4.85c0-.46-.19-.84-.52-1.16-.09-.09-.22-.17-.27-.28-.15-.33-.42-.36-.73-.36h-6.3c-.27,0-.54-.02-.81-.05-.42-.04-.51.02-.52.45v2.16c0,.59.05.64.65.64h2.89Z"/>
  <path class="cls-1" d="m105.33,18.16V7.28q0-.48.49-.48c3.1,0,6.2-.02,9.29,0,1.78.02,3.35.64,4.69,1.83.92.82,1.35,1.88,1.62,3.04.45,1.91.21,3.75-.62,5.51-.53,1.11-1.41,1.92-2.46,2.53-1.26.74-2.64,1.03-4.08,1.07-1.51.03-3.01.05-4.52.07-.5,0-.53.03-.53.52,0,1.59,0,3.19-.01,4.78,0,.99-.04,1.98-.05,2.97,0,.31-.14.43-.43.43-1,0-1.99-.01-2.99-.01-.33,0-.41-.15-.41-.46v-10.95h0v.03Zm3.88-4.44h-.04v3.26c0,.63.05.68.66.68,1.49,0,2.99.03,4.48-.04,1.32-.07,2.49-.49,3.09-1.82.56-1.25.73-2.54.14-3.8-.63-1.36-1.92-1.84-3.29-1.94-1.53-.12-3.08-.05-4.62-.07-.3,0-.44.1-.43.44.02,1.1,0,2.2,0,3.29h.01Z"/>
  <path class="cls-1" d="m129.16,29.98c-.74.03-1.41-.15-2.07-.46-.34-.16-.72-.25-1.05-.43-.42-.23-.82-.49-1.21-.78-.34-.25-.71-.5-.96-.83-.73-.99-1.38-2.03-1.66-3.26-.3-1.33-.48-2.67-.36-4.03.19-1.98.7-3.84,2.05-5.39,1.06-1.22,2.38-1.91,3.98-2.12.21-.03.44-.07.6-.18.3-.21.63-.22.95-.17.77.12,1.54.24,2.31.4,1.57.33,2.78,1.22,3.72,2.49,1.48,2,1.91,4.27,1.77,6.7-.09,1.53-.39,2.99-1.14,4.34-1.14,2.06-2.94,3.18-5.24,3.55-.56.09-1.13.12-1.69.18h0Zm4.34-9.12h-.1c0-1.41-.17-2.74-.85-4.03-.87-1.65-2.73-2.46-4.28-1.65-1.16.6-1.93,1.57-2.24,2.83-.34,1.43-.43,2.89-.37,4.35.06,1.32.45,2.53,1.18,3.65.53.8,1.22,1.28,2.16,1.38,1.12.11,2.17-.08,2.93-1,.64-.78,1.09-1.71,1.29-2.69.19-.93.19-1.89.27-2.84h.01Z"/>
  <path class="cls-1" d="m151.55,15.52c.28-.33.57-.65.84-.99,1.06-1.28,2.49-1.87,4.09-1.89,2.11-.03,4.3,1.04,4.84,3.82.13.67.22,1.35.23,2.03.03,3.51.02,7.01.02,10.52,0,.51-.07.57-.57.57h-2.35c-.75,0-.79-.03-.79-.77,0-3.31.02-6.61,0-9.92,0-.55-.15-1.11-.28-1.66-.1-.42-.4-.74-.78-.92-1.34-.64-2.61-.74-3.82.37-.54.49-.99,1.12-1.36,1.75-.2.34-.23.81-.23,1.23-.02,3.03,0,6.07,0,9.11,0,.9.05.76-.75.77-.79.01-1.59.03-2.38.02-.46,0-.46-.03-.41-.49,0-.12,0-.24,0-.35,0-4.35-.02-8.69-.03-13.04,0-.77,0-1.54-.04-2.3,0-.3.06-.42.39-.42.95.01,1.9,0,2.85,0,.27,0,.38.08.37.37-.02.57,0,1.13,0,1.7,0,.16.03.31.05.47.04,0,.08.02.12.03h0Z"/>
  <path class="cls-1" d="m165.84,8.99h2.12c.34,0,.69,0,1.03-.04.32-.03.47.08.46.41-.02.83,0,1.65-.05,2.48-.05,1.04,0,1.12,1.04,1.12h2.1c.28,0,.41.11.4.4,0,.69,0,1.39,0,2.12-.24.02-.44.05-.65.06-.82,0-1.64.02-2.46,0-.27,0-.38.06-.38.35,0,3.21,0,6.42,0,9.64,0,1.14.68,1.72,1.8,1.63.47-.04.95-.07,1.42-.11.19-.02.26.04.26.23,0,.63,0,1.25,0,1.88,0,.1-.1.27-.18.3-1.1.3-2.19.65-3.35.34-.56-.15-1.1-.36-1.64-.57-1.09-.42-1.58-1.31-1.75-2.39-.09-.56-.16-1.12-.16-1.69-.02-2.62,0-5.24,0-7.86,0-.41-.03-.83-.03-1.24,0-.27-.12-.43-.38-.47-.36-.06-.73-.09-1.09-.14-.15-.02-.3-.04-.46-.05-.33-.02-.47-.17-.46-.52.02-.51,0-1.01-.02-1.52,0-.26.1-.38.38-.37.5.02,1,0,1.49,0s.56-.07.56-.55v-3.44Z"/>
  <path class="cls-1" d="m100.74,26.38c-.15.17-.27.26-.33.37-.94,1.97-3.11,3.29-5.29,3.09-.69-.06-1.36-.39-2.05-.53-.91-.19-1.55-.71-2.23-1.32-.93-.83-1.31-1.89-1.76-2.97-.74-1.79-.77-3.64-.59-5.52.14-1.42.59-2.72,1.36-3.9.99-1.51,2.38-2.42,4.17-2.82,2.02-.44,3.76.05,5.31,1.31.36.29.59.75.86,1.14.13.19.22.41.32.62.36-.17.46-.45.45-.75-.01-.34-.08-.68-.12-1.01-.02-.13-.07-.25-.07-.38v-6.48c0-.31.12-.48.47-.45.27.03.55,0,.82,0,.25,0,.37.13.38.37v.28c0,7.23,0,14.46.01,21.68,0,.3-.1.41-.39.39-.31-.01-.62,0-.92-.01-.3,0-.42-.15-.41-.45.03-.8.03-1.6.05-2.41,0-.05-.02-.11-.05-.29v.04Zm-10.57-4.93c.05.56.11,1.28.18,1.99.2,2.09,1.37,3.56,3.03,4.71.22.15.49.29.75.3.91.03,1.83.08,2.73-.02.89-.09,1.58-.66,2.16-1.32,1.02-1.18,1.61-2.55,1.69-4.1.04-.69-.09-1.39-.03-2.08.07-.9.02-1.79-.18-2.67-.41-1.87-1.4-3.3-3.24-4-1.61-.62-3.18-.44-4.59.55-.9.63-1.51,1.52-1.89,2.56-.47,1.27-.52,2.6-.6,4.09h-.01Z"/>
  <path class="cls-1" d="m38.54,17.07V7.43c0-.58.05-.63.63-.62,2.04.03,4.08.09,6.12.09s4.2-.06,6.3-.1c.35,0,.52.08.46.45v.07c0,.98.15.92-.93.93-3.32.03-6.64,0-9.97,0h-.32c-.23,0-.32.11-.31.33v.35c0,2.26,0,4.51-.02,6.77,0,1.21-.02,1.22,1.22,1.23,2.9.03,5.79,0,8.69.01h.71c.07,0,.2.02.2.04.03.37.08.74.04,1.11,0,.09-.29.2-.45.22-.28.04-.57,0-.85.01-3.03.02-6.05.05-9.08.06-.35,0-.45.13-.45.45v4.46c0,1.92,0,3.85-.02,5.77,0,.44-.08.5-.53.51-.32,0-.64,0-.96-.01-.28-.01-.41-.15-.41-.45v-12.04h-.07Z"/>
  <path class="cls-1" d="m60.51,12.58c.88.12,1.78.14,2.62.37,1.67.45,2.77,1.6,3.58,3.08.96,1.74,1.37,3.61,1.26,5.58-.07,1.4-.27,2.79-.86,4.09-1.03,2.25-2.74,3.61-5.2,4.12-1.58.33-2.99-.06-4.41-.65-1.55-.63-2.57-1.75-3.23-3.24-.28-.63-.61-1.27-.77-1.93-.39-1.62-.38-3.27-.12-4.92.22-1.4.67-2.69,1.51-3.84,1-1.36,2.32-2.25,4-2.52.52-.08,1.06-.01,1.6-.01v-.12h.02Zm5.64,9.14c-.03-2.08-.11-3.85-1.16-5.44-.45-.67-.89-1.3-1.59-1.72-.13-.08-.29-.15-.37-.27-.34-.55-.91-.51-1.44-.58-.07-.01-.14,0-.21-.01-2.32-.37-4.6,1.08-5.5,3.07-.48,1.07-.72,2.2-.72,3.36,0,1.27-.06,2.56.12,3.81.21,1.42,1.03,2.59,2.04,3.61.62.62,1.35,1.04,2.24,1.12.48.05.97.02,1.46.04,1.71.04,2.9-.8,3.74-2.2.36-.6.66-1.23.95-1.86.15-.34.26-.71.31-1.08.08-.7.11-1.41.14-1.84h0Z"/>
  <path class="cls-1" d="m85.59,21.23c-.02,1.76-.36,3.44-1.15,5.02-.67,1.34-1.68,2.34-3.09,2.89-.75.3-1.53.61-2.32.73-.91.14-1.86.18-2.75-.28-.39-.2-.81-.32-1.24-.44-.57-.15-1.03-.45-1.42-.89-.44-.49-.98-.92-1.32-1.47-.81-1.32-1.34-2.73-1.45-4.31-.09-1.33-.1-2.65.24-3.93.5-1.88,1.28-3.62,2.93-4.84.76-.56,1.58-.88,2.5-1.01,1.38-.19,2.78-.25,4.12.18,1.87.6,3.17,1.87,3.94,3.67.5,1.19.88,2.41.95,3.71.02.32.03.64.05.95v.02Zm-12.9-.04c.02,1.75.05,3.49,1.1,5.03.82,1.21,1.72,2.24,3.31,2.47,1.74.25,3.28.06,4.57-1.27,1.08-1.12,1.68-2.45,1.94-3.93.29-1.7.19-3.41-.13-5.1-.09-.48-.38-.93-.55-1.4-.36-.99-.89-1.85-1.87-2.35-.12-.06-.26-.15-.33-.26-.29-.44-.72-.58-1.21-.62-.17-.01-.33-.03-.49-.05-2.29-.31-4.51.91-5.48,3.02-.65,1.42-.85,2.93-.85,4.48v-.02Z"/>
  <path class="cls-1" d="m140.5,12.96h2.64c.61,0,.91.3.91.9v15.23c0,.32-.12.46-.44.46-.84,0-1.68.03-2.53.03-.6,0-.59-.01-.59-.61,0-2.83,0-5.67,0-8.5v-7.5h.02Z"/>
  <path class="cls-1" d="m144,11.19c-.41-.03-.81-.09-1.21-.09-.62,0-1.24.17-1.86,0-.28-.07-.43-.17-.43-.48,0-1.16,0-2.31,0-3.47,0-.26.09-.35.35-.35.96.01,1.92,0,2.88,0,.19,0,.32.04.32.27v3.89c0,.07-.02.13-.04.23h-.01Z"/>
</svg>