<?xml version="1.0" encoding="UTF-8"?>
<svg id="Capa_1" data-name="Capa 1" xmlns="http://www.w3.org/2000/svg" viewBox="0 0 173.4 118.53">
  <defs>
    <style>
      .cls-1 {
        fill: #fff;
      }
    </style>
  </defs>
  <path class="cls-1" d="m118.1.2c.69.31,1.39.62,2.08.94,3.43,1.57,4.97,4.39,5,8.01.1,10.36.12,20.71.13,31.07,0,6.11-.5,12.16-2.7,17.95-1.54,4.05-3.65,7.74-6.56,11.01-2.57,2.89-5.51,5.28-8.73,7.31-3.45,2.17-7.16,3.69-11.17,4.67-3.3.8-6.61,1.27-9.95,1.19-5.2-.12-10.2-1.24-15.02-3.38-5.73-2.55-10.44-6.4-14.45-11.06-4.12-4.78-6.91-10.36-8.36-16.52-.57-2.44-.79-4.96-1.14-7.44-.12-.86-.23-1.74-.21-2.6.16-7.07,1.62-13.83,5.07-20.07,2.55-4.62,5.91-8.55,9.95-11.93,5.07-4.24,10.87-6.9,17.24-8.43,1.54-.37,3.1-.61,4.66-.92.23,0,.46,0,.69,0h.92c10.85.07,21.69.13,32.54.2Zm-23.37,49.01c0,1.25.04,2.33-.03,3.4-.1,1.4-.6,2.58-1.84,3.42-2.07,1.41-4.38,1.57-6.74,1.43-4.6-.28-6.57-2.68-6.79-6.86-.24-4.6-.03-9.23.03-13.84.02-1.86.03-3.75.3-5.59.27-1.84,1.23-3.34,3.02-4.19,1.99-.94,4.01-1.06,6.15-.67,1.93.35,3.6,1.04,4.61,2.79.54.93.92,1.95,1.36,2.94.47,1.06,1.31,1.57,2.39,1.25,2.81-.83,5.61-1.71,8.37-2.71,1.4-.51,1.7-1.43,1.31-2.9-.2-.75-.4-1.51-.69-2.23-1.18-2.94-2.89-5.5-5.52-7.35-2.73-1.93-5.74-3.1-9.08-3.55-3.1-.42-6.14-.56-9.25-.05-4.54.75-8.47,2.49-11.59,5.99-2.82,3.16-4.27,6.92-4.45,11.02-.27,5.87-.09,11.77-.2,17.65-.05,2.63.13,5.24,1.03,7.68,3.11,8.4,9.52,12.23,17.79,12.61,2.38.11,4.8-.08,7.16-.42,4.5-.65,8.38-2.54,11.43-6.05,2.63-3.03,4-6.55,4.17-10.48.18-3.99.06-7.99.05-11.99,0-1.11-.72-2.12-1.65-2.29-.67-.13-1.35-.19-2.03-.2-5.15-.04-10.31-.07-15.46-.09-.57,0-1.14.11-1.71.14-1.22.08-1.74.81-1.76,1.94-.04,2.31-.08,4.61-.05,6.92.02,1.55.78,2.23,2.34,2.24,2.41.02,4.83.03,7.35.04Z"/>
  <path class="cls-1" d="m.09,92.06c.4-1.13.73-2.28,1.21-3.38,1.42-3.3,4.05-5.29,7.42-6.13,4.3-1.07,8.62-1.02,12.65,1.12,2.88,1.52,4.65,4.01,5.47,7.14.21.81-.14,1.58-.96,1.85-1.84.6-3.71,1.06-5.56,1.61-1.02.3-1.54-.34-1.71-1.1-.86-3.75-5.67-4.26-8.21-2.68-1.38.86-1.7,2.36-1.74,3.82-.08,3.53.01,7.07-.03,10.61-.04,2.97,1.75,5.33,4.86,5.01.9-.09,1.82-.06,2.7-.22,1.28-.24,2.78-1.74,2.53-3.14-.1-.59-.01-1.21,0-1.92-1.65,0-3.22-.01-4.78-.03-1.18-.01-1.65-.47-1.67-1.64-.02-1.19,0-2.38.02-3.58.01-1.54.49-2.04,2.06-2.05,2.69,0,5.38.03,8.07.05,1.04,0,2.08-.01,3.11.03,1.21.05,1.83.67,1.83,1.88,0,2.54.11,5.09-.1,7.61-.44,5.34-3.7,8.96-9.05,10.42-.55.15-1.1.3-1.66.46l-5.54-.03c-.08-.07-.15-.2-.23-.21-5.49-.81-9.01-3.82-10.4-9.24-.13-.49-.25-.98-.38-1.47.03-4.92.06-9.85.09-14.77Z"/>
  <path class="cls-1" d="m56.48,118.01c-1.21-.39-2.51-.62-3.63-1.2-3.34-1.75-5.04-4.6-5.06-8.39-.01-2.69.06-5.38.08-8.07.02-3.62,2.4-7.12,5.8-8.17,3.71-1.15,7.5-1.21,11.08.35,2.48,1.08,4.15,3.13,4.62,5.91.76,4.54.96,9.1-.4,13.56-.99,3.24-4.41,5.63-7.76,5.82-.19.01-.38.14-.57.22l-4.15-.02Zm-.61-13.45c0,1.19-.01,2.38-.02,3.58,0,1.37.91,2.59,2.03,2.73,2.05.24,3.44-.49,3.73-2.1.17-.93.15-1.91.17-2.86.03-1.58.08-3.15.01-4.73-.09-2.05-1.21-2.87-3.6-2.77-1.4.06-2.3,1.2-2.31,2.93,0,1.08-.01,2.15-.02,3.23Z"/>
  <path class="cls-1" d="m141.87,118.5c-.8-.24-1.6-.49-2.4-.72-3.76-1.06-5.86-4.8-6.06-8.16-.16-2.72-.35-5.46-.17-8.17.36-5.21,3.46-9.52,9.77-9.49,2.16.01,4.32-.12,6.39.73,3.14,1.29,4.92,3.71,5.46,6.95.32,1.9.25,3.88.21,5.82-.03,1.34-.91,2.05-2.32,2.05-3.42,0-6.84-.03-10.27-.05-.38,0-.75,0-1.22,0,0,.77-.14,1.48.02,2.12.27,1.1.69,2.29,2.02,2.42,1.56.16,3.2.32,4.29-1.31.94-1.42,1.07-1.42,2.67-.75.93.38,1.83.82,2.77,1.15,1.89.68,1.47,1.86.81,3.04-1.55,2.78-4.24,3.65-7.13,4.17-.24.04-.47.15-.7.23-1.38,0-2.77-.02-4.15-.02Zm-.56-16.85c.06.06.13.12.19.19,1.9.01,3.81.02,5.77.03-.1-1.32,0-2.59-1.07-3.46-1.55-1.26-4.48-.28-4.9,1.64-.11.51,0,1.07,0,1.6Z"/>
  <path class="cls-1" d="m173.27,116.61c-.84,1.31-2.12,1.58-3.52,1.35-1.76-.29-3.58-.49-5.25-1.09-2.6-.93-3.65-3.24-3.83-5.78-.25-3.35-.16-6.72-.22-10.08,0-.41,0-.83,0-1.18-.85-.14-1.58-.25-2.31-.39-.87-.16-1.14-.79-1.15-1.56-.02-1.19.04-2.38,0-3.57-.03-1.07.34-1.63,1.69-1.77.56-.06,1.13,0,1.79,0,0-1.46.08-2.84,0-4.21-.05-.87.42-1.45,1.08-1.47,1.9-.07,3.8.05,5.7.13,1.06.05,1.31.81,1.31,1.7,0,1.34-.01,2.67-.02,4.13.87,0,1.67.09,2.45,0,1.2-.14,2,.25,2.39,1.42,0,1.38-.02,2.77-.02,4.15-1.18,1.87-3.15.82-4.8,1.25-.02,3-.1,5.98-.02,8.95.04,1.41.88,2.09,2.3,1.99,1.21-.08,2.02.28,2.44,1.43,0,1.54-.02,3.08-.03,4.62Z"/>
  <path class="cls-1" d="m85.56,0h-.92c.31,0,.62,0,.92,0Z"/>
  <path class="cls-1" d="m94.98,108.18c.37-2.99.69-5.79,1.08-8.57.27-1.93.57-3.85.98-5.75.18-.85.67-1.54,1.81-1.47,1.73.1,3.46.04,5.19.05,1.26,0,1.54.29,1.26,1.51-.5,2.19-1.08,4.36-1.63,6.54-1.27,5.08-2.53,10.16-3.79,15.25-.24.99-.78,1.67-1.85,1.68-1.84.01-3.69-.06-5.53-.05-1.15,0-1.65-.73-1.82-1.65-.58-3.23-1.08-6.48-1.59-9.73-.23-1.46-.39-2.92-.82-4.41-.19,1.03-.37,2.07-.57,3.1-.72,3.79-1.4,7.59-2.21,11.36-.11.5-.88,1.17-1.38,1.2-1.99.11-3.99.07-5.97-.08-.4-.03-.97-.71-1.1-1.18-.89-3.22-1.7-6.45-2.49-9.69-.96-3.96-1.85-7.94-2.8-11.9-.44-1.85-.13-2.33,1.74-2.3,1.64.03,3.28.17,4.92.18,1.16,0,1.57.8,1.69,1.66.58,4.03,1.07,8.06,1.59,12.1.1.78.21,1.56.34,2.48.29-2.47.5-4.81.86-7.14.41-2.66.9-5.31,1.48-7.93.1-.43.81-1.01,1.26-1.04,1.92-.11,3.84-.05,5.76-.01.79.01,1.3.5,1.41,1.25.67,4.39,1.89,8.71,1.81,13.21,0,.39.19.78.34,1.35Z"/>
  <path class="cls-1" d="m116.38,99.23c-.03,5.02-.06,9.94-.09,14.86,0,.5,0,1-.01,1.5-.06,1.49-.55,1.93-2.02,1.91-1.5-.02-3,.01-4.5-.01-1.2-.02-1.52-.38-1.51-1.59.04-6.73.09-13.46.12-20.19,0-1.05.39-1.81,1.37-2.22,2.33-.98,4.74-1.54,7.28-1.7,2.2-.14,4.32-.08,6.47.49,3.06.81,4.82,2.82,5.54,5.74.42,1.71.54,3.52.57,5.29.06,4.04-.02,8.07-.05,12.11-.01,1.61-.6,2.18-2.2,2.16-1.35-.02-2.69-.02-4.04-.02-1.51,0-1.9-.37-1.89-1.9.01-4.42.09-8.84.04-13.26-.01-.88-.28-1.93-.81-2.6-1.15-1.43-2.74-.74-4.26-.55Z"/>
  <path class="cls-1" d="m31.27,105.35c.02-3.27.05-6.53.05-9.8,0-1.11.53-1.73,1.55-2.17,3.95-1.69,8.11-1.32,12.23-1.24.31,0,.83.76.86,1.19.1,1.45.06,2.92,0,4.38-.03.86-.56,1.27-1.43,1.3-1.37.05-2.73.17-4.1.19-.85,0-1.12.35-1.12,1.17,0,4.84-.04,9.69-.07,14.53-.01,1.9-.33,2.21-2.21,2.18-1.31-.02-2.61-.02-3.92-.02-1.7,0-1.91-.18-1.91-1.91,0-3.27.03-6.53.05-9.8h0Z"/>
  <path class="cls-1" d="m141.31,101.65c.06.06.13.12.19.19-.06-.06-.13-.12-.19-.19Z"/>
</svg>